<svg xmlns="http://www.w3.org/2000/svg" width="98.136" height="85.922" viewBox="0 0 98.136 85.922">
    <path id="Trazado_59" data-name="Trazado 59" d="M602.78,72.97a57.971,57.971,0,0,1-9.07-15.95,4.36,4.36,0,0,1-.41-.55c-4.27-6.8-8.18-13.84-12.27-20.89a24.311,24.311,0,0,1,2.25-1.56c14.81-7.87,5.26-2.44,20.1-10.27,2.45-1.29,5.03-3.06,3.06-5.79-.87-1.2-4.64-1.33-6.52-.55-4.75,1.95-9.16,4.71-13.72,7.11-11.03,5.81,2.3-1.68-9.01,4.26-5.01-8.62-9.68-16.76-14.46-24.83-3.08-5.21-5.71-5.25-8.71-.12-4.75,8.1-9.39,16.27-14.43,25.03-16.01-8.45-5.95-3.42-21.53-11.35-1.79-.91-5.75-.84-6.58.3-2.22,3.07.63,4.83,3.22,6.18,7.2,3.74-11.07-5.83-3.9-2.04,8.26,4.37,16.47,8.82,24.78,13.27-3.55,6.97-6.92,13.76-11.6,19.33a71.542,71.542,0,0,1-9.24,15.77c.12-.06.24-.13.36-.19-.53,2.02-.7,2.9-.98,3.74-.76,2.26-1.54,4.51-2.31,6.76a8.072,8.072,0,0,0,.86,2.37,8.324,8.324,0,0,0,1.21,1.65c2.83.42,5.66.85,8.5,1.26a6.855,6.855,0,0,0,1.11,0c16.38-.22,32.77-.55,49.15-.61,9.76-.03,19.53.52,29.29.53,5.36.01,6.55-2.28,4.06-7.03C604.93,76.85,603.85,74.91,602.78,72.97Zm-22.63-24-.6.9c-4.03-2.07-8.07-4.15-13.33-6.86,3.27-1.68,5.45-2.81,8.02-4.12C576.34,42.48,578.25,45.73,580.15,48.97ZM558.35,11.2c4.41,7.62,8.16,14.11,11.9,20.56-10.06,7.74-13.42,7.77-23.82.13C550.2,25.34,554,18.75,558.35,11.2ZM542.47,38.91c2.56,1.33,4.73,2.46,7.86,4.09-5,2.64-9.07,4.78-13.13,6.93l-.75-.9C538.39,45.77,540.32,42.52,542.47,38.91ZM519.36,78.27c4.09-7.51,7.1-15.08,15.45-18.79,6.88-3.06,13.31-7.12,20.16-10.27a9.163,9.163,0,0,1,6.94-.03c8.12,3.91,16.59,7.52,23.74,12.85,4.83,3.6,7.66,9.87,12.33,16.24Z" transform="translate(-509.099 -0.012)" fill="#fff"/>
</svg>
