<svg xmlns="http://www.w3.org/2000/svg" width="87.352" height="87.455" viewBox="0 0 87.352 87.455">
    <path id="Trazado_62" data-name="Trazado 62" d="M432.2,43.96c0,10.32.06,20.64-.02,30.96-.07,8.15-4.2,12.43-12.25,12.46q-31.455.15-62.91.03c-7.7-.02-12.08-4.42-12.1-12.13q-.105-31.905-.01-63.81C344.93,4.56,349.44.06,356.66.01c8.81-.06,17.62.38,26.43.37C394.89.37,406.7.07,418.5.02c9.98-.04,13.72,3.85,13.72,13.98Q432.2,28.97,432.2,43.96Zm-43.59,36.9v-.04c10.15,0,20.3-.06,30.45.03,4.55.04,6.83-1.95,6.83-6.54q-.015-30.705-.02-61.41c-.01-4.22-2.11-6.43-6.48-6.43q-30.66.045-61.32-.02c-4.65-.02-6.68,2.11-6.59,6.68.1,5.63.06,11.25.05,16.88,0,14.61-.06,29.21-.01,43.82.02,5.77,1.28,6.97,7.14,7.01C368.65,80.91,378.63,80.86,388.61,80.86Z" transform="translate(-344.87 -0.004)" fill="#fff"/>
    <path id="Trazado_66" data-name="Trazado 66" d="M419.34,43.73a30.757,30.757,0,1,1-30.6-30.99A30.7,30.7,0,0,1,419.34,43.73Zm-6.58.19a24.514,24.514,0,0,0-23.85-24.57c-13.23-.26-24.66,11.05-24.62,24.36a24.235,24.235,0,0,0,48.47.21Z" transform="translate(-344.87 -0.004)" fill="#fff"/>
    <path id="Trazado_67" data-name="Trazado 67" d="M394.84,43.31c-2.85,2.28-4.54,4.66-6.08,4.58-1.62-.09-4.23-2.49-4.32-4-.09-1.45,2.32-4.04,3.95-4.33C389.89,39.29,391.81,41.43,394.84,43.31Z" transform="translate(-344.87 -0.004)" fill="#fff"/>
</svg>
