<svg xmlns="http://www.w3.org/2000/svg" width="102.806" height="85.927" viewBox="0 0 102.806 85.927">
    <path id="Trazado_60" data-name="Trazado 60" d="M215.7,59.25q-13.53.015-27.05,0c-6.29-.01-9.48-2.03-11.23-7.95q-6.69-22.725-12.86-45.6c-.35-1.28,1.13-3.06,1.77-4.61,1.25.97,3.32,1.75,3.6,2.94.78,3.37,3,3.87,5.76,5.31,8.97,4.67,17.01,4.12,26.09.09,3.63-1.61,9.4-.1,13.56,1.57,5.91,2.37,11.09,3.08,16.88-.07,6.08-3.32,12.48-3.17,18.74-.07,1.06.52,2.1,1.1,3.2,1.53,4.44,1.71,5.26,1.27,6.42-3.29.36-1.43.42-3.08,1.2-4.23,1-1.47,2.6-2.54,3.94-3.79.57,1.73,1.73,3.51,1.58,5.17-.26,2.75-1.36,5.42-2.13,8.12-3.4,11.93-6.76,23.87-10.23,35.78-2.05,7.04-4.88,9.07-12.17,9.08C233.73,59.25,224.71,59.24,215.7,59.25Zm41.72-39.14c-2.84-1.11-5.29-1.75-7.43-2.96-5.68-3.22-11.15-3.05-16.81.05-5.84,3.2-11.98,3.43-17.81.25-6.15-3.36-11.86-3.32-18.04-.01-5.8,3.12-11.88,2.97-17.79-.25a53.44,53.44,0,0,0-5.55-2.3c-.27.74-.5,1.04-.44,1.25,3.23,11.34,6.34,22.71,9.9,33.95.46,1.46,3.24,3.09,4.96,3.11,18.3.23,36.61.1,54.91.2,3.18.02,4.99-1.3,5.83-4.24C251.89,39.52,254.63,29.89,257.42,20.11Z" transform="translate(-164.507 -1.08)" fill="#fff"/>
    <path id="Trazado_63" data-name="Trazado 63" d="M200.61,81.21q22.32,0,44.64.01a4.518,4.518,0,0,1,2.17.19,27.32,27.32,0,0,1,3.1,2.52c-1.06.98-1.98,2.24-3.22,2.84-.96.46-2.32.11-3.5.11q-14.145,0-28.28-.01c-9.86,0-19.72-.03-29.58,0-2.32.01-4.94.02-4.92-2.99s2.68-2.99,4.97-2.99c4.87.01,9.74,0,14.61,0C200.61,81,200.61,81.11,200.61,81.21Z" transform="translate(-164.507 -1.08)" fill="#fff"/>
    <path id="Trazado_64" data-name="Trazado 64" d="M215.86,68.33c10.18,0,20.36-.1,30.54.11,1.52.03,3.01,1.52,4.51,2.33-1.24,1.04-2.46,2.97-3.72,2.99-19.61.3-39.22.35-58.83.45-1.03.01-2.26.37-3.06-.06a33.554,33.554,0,0,1-4.36-3.22c1.46-.87,2.9-2.45,4.37-2.48C195.5,68.22,205.68,68.33,215.86,68.33Z" transform="translate(-164.507 -1.08)" fill="#fff"/>
</svg>
