<svg xmlns="http://www.w3.org/2000/svg" width="87.627" height="87.375" viewBox="0 0 87.627 87.375">
    <path id="Trazado_61" data-name="Trazado 61" d="M43.61,87.41c-10.17,0-20.33.04-30.5-.01C4.29,87.35.07,83.3.04,74.66Q-.05,43.415.05,12.18C.08,4.51,4.4.04,12.15.05Q44.385.125,76.61.56a11.28,11.28,0,0,1,10.9,11.4q.21,31.74,0,63.49c-.06,7.68-4.63,11.84-12.41,11.9-10.49.08-20.99.02-31.49.02C43.61,87.4,43.61,87.41,43.61,87.41ZM6.7,43.64c0,10.32.05,20.64-.02,30.95-.03,4.16,1.89,6.21,6,6.21q31.2.015,62.4-.01c3.62,0,5.77-1.77,5.78-5.39q.075-31.95-.04-63.91c-.01-3.93-2.33-5.45-6.18-5.41-20.13.19-40.27.26-60.4.39-6.29.04-7.47,1.22-7.51,7.71C6.65,24,6.7,33.82,6.7,43.64Z" transform="translate(0 -0.05)" fill="#fff"/>
    <path id="Trazado_65" data-name="Trazado 65" d="M43.91,74.41c-16.45.2-30.66-13.12-30.93-28.97-.31-18.3,12.78-32.41,30.41-32.79,16.88-.36,31.27,13.91,31.29,31.02C74.69,60.75,61.23,74.2,43.91,74.41Zm24.07-30.9C67.86,30.24,56.86,19.2,43.72,19.35A24.566,24.566,0,0,0,19.6,45.13c.55,11.98,11.45,22.82,23.95,22.89A24.476,24.476,0,0,0,67.98,43.51Z" transform="translate(0 -0.05)" fill="#fff"/>
</svg>
