<svg id="Grupo_50" data-name="Grupo 50" xmlns="http://www.w3.org/2000/svg" width="612.766" height="612.948" viewBox="0 0 612.766 612.948">
    <path id="Trazado_68" data-name="Trazado 68" d="M326.087,19.7C500.563,20.867,636.17,162.635,632.275,333.4c-3.913,171.285-147.4,306.84-321.015,298.912C147.714,624.852,12.914,486.722,19.847,313.549,26.385,150.776,159.572,20.421,326.087,19.7Z" transform="translate(-19.591 -19.7)" fill="#fefefe"/>
    <path id="Trazado_69" data-name="Trazado 69" d="M307.129,84.119c-25.553-.5-50.814,1.836-74.96,10.554-78.872,28.487-126.1,83.952-140.875,166.72a2.238,2.238,0,0,0,.446,1.493C109.588,181.526,156.592,126.1,236.46,100.405c26.857-8.632,54.607-10.194,82.648-5.989-52.993-4.256-101.165,8.529-143.312,41.118-42.251,32.675-66.911,75.869-74.6,128.622,24.643-105.18,90.576-159.581,198.966-162.018-1.15,5.1-5.44,3.947-8.889,4.5-25.759,1.064-50.488,6.47-73.673,18-4.2,2.094-8.855,3.192-12.785,5.869-8.46,6.006-17.4,11.292-25.433,17.951-18.38,15.2-33.739,32.881-44.893,54.057a2.389,2.389,0,0,1-.755.738c-3.9,5.286-5.56,11.635-8.22,17.487-5.028,11.052-7.894,22.824-10.674,34.614-1.1,7.911-2.368,15.805-2.608,23.82-1.613,7.688-2.059,15.376-.223,23.082,1.253,25.519,8.821,49.355,19.117,72.506a6.31,6.31,0,0,0,1.339,1.6c5.131,8.992,10.074,18.1,16.475,26.325,14.844,19.083,32.005,35.541,53.079,47.656,7.963,5.629,16.938,9.284,25.879,12.939a177.53,177.53,0,0,0,78.632,12.836,183.775,183.775,0,0,0,68.7-17.642c3.981-1.888,7.877-3.913,11.961-5.543,6.761-5.3,14.278-9.542,21.142-14.741a178.268,178.268,0,0,0,49.218-57.61c2.832-1.716,2.952-4.994,4.256-7.568,3.981-7.774,6.761-16.08,10.4-24.026,1.2-5.114,1.75-10.434,4.41-15.1.824-1.424.275-2.711.206-4.067,2.2-10.314,3.295-20.782,4.977-31.182.875-8.306-.944-16.423-1.562-24.609-.309-1.184.137-2.317.275-3.467-1.527-21.263-7.946-41.135-16.972-60.27-1.27-2.694-1.939-5.646-3.552-8.169a267.143,267.143,0,0,0-24.094-34.889c-1.081-1.339-2.385-2.677-2.814-4.376-.446-1.8-.412-3.638,2.42-2.523,32.211,31.731,49.493,70.481,54.246,115.134,2.763,25.948-.532,51.312-7.482,76.3-.944,7.053-4.084,13.351-6.847,19.77-3.381,8.821-8.375,16.852-11.035,21.52,2.42-4.513,7.431-12.253,10.794-20.816,3.141-5.921,4.273-12.7,7.928-18.4,23.494-74.136,8.615-140.326-41.753-199.721,2.626.463,3.81,2.179,5.114,3.518,25.707,26.291,41.7,57.816,49.458,93.545,7.671,35.352,5.8,70.36-4.994,104.906-.532,1.682-.927,3.381-1.39,5.08-2.179,9.4-6.573,17.916-10.811,26.48-1.39,2.8-3.158,5.406-4.393,8.306a39.809,39.809,0,0,0-3.827,6.212,65.332,65.332,0,0,1,3.913-6.573,220.7,220.7,0,0,0,14.055-29.723c.5-1.287.789-2.711,2.094-3.518,26.857-78.255,12.8-148.838-39.814-212.471,2.729-.549,3.655,1.785,4.908,3.106,24.54,25.982,40.483,56.614,48.755,91.263,9.885,41.41,7.362,82.219-6.556,122.376-.343,1-.6,2.008-.892,3.02-1.922,8.495-6.2,15.977-10.108,23.614-1.03,2.008-2.317,3.9-2.866,6.127-.172.686.807.24.1.189-.223-.017-.292-.206-.12-.5,5.131-9.2,8.855-19.1,14-28.281,30.77-84.278,16.3-160.473-40.38-229.633,1.8,1.7,3.69,3.295,5.371,5.1,29.431,31.594,47.09,68.97,54.246,111.393a221.822,221.822,0,0,1-3.072,88.671,17.278,17.278,0,0,0-.206,2.094c-1.047,9.181-4.651,17.59-7.757,26.154-3.192,9.1-7.808,17.556-11.206,24.455a251.953,251.953,0,0,0,10.966-23.631c3.535-8.049,5.045-16.818,9.01-24.695,17.83-67.735,8.014-130.956-30.993-189.39-2.935-4.393-6.075-8.666-9.284-12.854-3.175-4.153-6.556-8.134-10.074-12.493,3.158,0,4.428,2.385,5.972,4.05,30.118,32.211,49.27,70.275,55.774,113.624,14.175,94.369-16.131,172.555-92.653,229.615C299.973,582.958,106.482,511.43,67.475,349.206,36.739,221.528,117.516,94.33,246.568,67.37a217.339,217.339,0,0,1,58.88-4.376c-.566,2.385-2.506,1.27-3.81,1.339-5.749.326-11.532-.36-17.281.395-73.02,5.646-131.368,37.754-174.185,97.3-19.306,26.84-31.336,56.906-37.257,89.426-.275,1.544-.292,3.158-.429,4.736.257,6.384-1.733,12.613-1.459,19a118.148,118.148,0,0,0-1,20.319,117.9,117.9,0,0,1,.927-19.993c.36-5.715.154-11.515,2.557-16.921C85.013,195.649,117,145.813,170,110.05c44.413-29.98,93.8-41.5,147.088-36.45-1,2.574-2.883,1.167-4.5,1.03-28.23-1.218-56.151,1-82.888,10.537Q104.44,129.853,81.341,261.136a49.887,49.887,0,0,0-.36,5.8c.257,3.415-.515,6.779-.412,10.159-1.133,5.886-.154,11.858-.515,16.766.017-3.861-.017-8.718.017-13.609.875-4,0-8.255,1.9-12.081C93.045,195.975,130.439,141.9,194.5,106.926c36.793-20.078,76.59-27.355,118.36-23.8C311.4,85.99,309.1,84.119,307.129,84.119Z" transform="translate(10.023 10.988)" fill="#0b0b0b"/>
    <path id="Trazado_70" data-name="Trazado 70" d="M336.727,132.155c-1.853,2.317.807,3.072,1.665,4.153,9.2,11.429,17.762,23.253,24.781,36.158-1.013,8.22-6.109,14.535-10.846,20.593-6.006,7.654-12.854,14.793-21.143,20.233-.5.515-1.03,1-1.562,1.476a14.082,14.082,0,0,0-3.484,3.432c-2.282,3.69-7.774,4.119-9.01,8.872-8.632,6.384-16.046,14.141-24.334,20.919-3.364,2.763-6.4,6.041-10.709,7.482a27.271,27.271,0,0,1-8.426,4.256c-7.019,1.819-12.3-3.295-10.76-10.4.824-3.758,3.415-6.332,5.9-8.958,7.19-7.568,15.119-14.4,22.635-21.606.618-.841,1.716-1.047,2.334-1.75-9.645,8.237-19.066,16.629-27.338,26.154a101.93,101.93,0,0,1-17.041,15.153,21.843,21.843,0,0,1-9.147,3.964c-4.2.755-8.152.257-10.932-3.484a11,11,0,0,1,.189-12.442,108.7,108.7,0,0,1,15.17-16.612c10.142-9.387,19.6-19.5,26.7-25.09-10.811,9.662-25.038,22.7-38.1,36.931-4.153,4.531-8.083,9.164-14,11.326-4.6,1.682-9.233,2.42-13.386-1.287-6.161-5.526-6.229-11.584,0-19a61.571,61.571,0,0,1,9.318-9.353c16.56-12.716,30.341-28.539,43.366-38.99-10.5,8.615-22.738,21.486-36.107,33.121a34.6,34.6,0,0,1-7.722,5.423c-6.916,3.261-11.635,1.7-15.376-4.942a14.51,14.51,0,0,1,2.471-12.407,69.66,69.66,0,0,1,14.93-16.08A83.873,83.873,0,0,1,232.147,175.2c8.323-9.868,19.032-17.092,28.213-25.707-11.258,3.741-21.863,10.691-34.734,9.216-2.282-1.27-4.668-2.3-6.658-4.067-6.5-5.818-6.607-8.889-.378-14.776,3.5-2.78,7.722-4.1,11.91-5.268,14.827-4.17,27.2-12.836,39.591-21.469A41.856,41.856,0,0,1,298.9,101.9c.532.137,1.047.275,1.579.429.566.309,1.115.635,1.682.944,8.22,5.852,15.805,12.562,24.094,18.345A51.621,51.621,0,0,1,336.727,132.155Z" transform="translate(108.808 39.164)" fill="#676767"/>
    <path id="Trazado_71" data-name="Trazado 71" d="M338.248,113.671a2.635,2.635,0,0,1-2.471,1.6,51.475,51.475,0,0,0-24.9,11c-14.055-1.8-27.6.635-41,4.771a27.485,27.485,0,0,1-17.127-.618c-14-4.668-27.441-1.339-40.758,3.192-1.373.463-2.591,1.321-2.591,2.969a2.981,2.981,0,0,0,3,3.123c5.9-.086,7.465,6.367,12.425,7.946,2.162.686.841,4.531-2.145,5.251a22.049,22.049,0,0,1-8.083.223c-1.7-.223-3.312-.412-4.668.91-1.7,1.1-3.295.549-5.011-.086-14.741-5.389-27.509-14-39.471-23.991-6.178-5.166-11.7-11.241-19.495-14.244-1.716-.669-3.02-1.939-1.9-4.119,19.289-10.331,39.5-18.174,61.231-21.829a231.614,231.614,0,0,1,26.205-2.832c19.8-2.214,39.041,1.3,58.176,5.852a7.247,7.247,0,0,1,3.209,1.733c-.172,4.307,1.991,5.732,6.109,5.371,3.758-.326,7.379,2.111,11.241.807.292-.223.652-.515.927-.412A99.51,99.51,0,0,1,338.248,113.671Z" transform="translate(69.241 27.96)" fill="#fefefe"/>
    <path id="Trazado_72" data-name="Trazado 72" d="M313.415,122.153c-7.122-3.123-5.08-7.705-2.832-12.064,1.991-3.878,2.4-7.122-1.476-10.177-1.75-1.373-2.883-1.7-4.393.017-1.27,1.459-2.626,2.849-4,4.222-1.51,1.51-2.523,3.9-5.3.927-2.505-2.66-2.214-4.084.36-6.281a194.2,194.2,0,0,0,21.091-20.748c1.836-2.128,3.209-2.162,5.1-.137,3.106,3.364,6.59,6.384,9.593,9.833,3.055,3.518,4.479,7.74,2.317,12.236-2.265,4.685-5.783,8.237-11.412,7.946-3.243-.172-4.256,1.321-5.1,3.913C316.195,115.34,314.736,118.738,313.415,122.153Z" transform="translate(176.687 20.919)" fill="#0c0c0c"/>
    <path id="Trazado_73" data-name="Trazado 73" d="M231.668,72.07c-5.835,1.459-8.478-.927-9.627-6.144-.841-3.827-1.39-8.152-7.173-8.117-2.917.017-4.256.755-4.273,3.707,0,1.75-.36,3.518-.292,5.268.1,2.883-.738,4.1-3.964,3.655-3.038-.412-3.741-1.562-3.261-4.479a190.32,190.32,0,0,0,2.832-29.431c.017-3.295,1.253-4.479,4.428-3.913,5.011.91,10.245.257,15.17,1.888,8.615,2.866,11.481,13.986,4.7,20.044-3.312,2.952-3.055,5.251-1.665,8.563C229.746,66.029,230.621,69.05,231.668,72.07Z" transform="translate(111.707 -10.548)" fill="#0c0c0c"/>
    <path id="Trazado_74" data-name="Trazado 74" d="M95.371,125.214c-2.694,7.1-2.729,7.345-11.7,5.886-4.187-.686-6.641.36-8.426,4.17-1.064,2.265-.892,3.57,1.373,4.616,1.75.807,3.432,1.8,5.183,2.608,2.3,1.064,3.81,1.922,1.922,4.994-1.785,2.9-3.072,2.883-5.68,1.218A205.769,205.769,0,0,0,52.3,134.258c-2.66-1.218-3.432-2.488-1.8-5.165,2.3-3.741,4.136-7.774,6.487-11.481,2.591-4.119,6.332-6.9,11.446-5.989,5.08.91,9.507,3.467,10.794,8.855.772,3.226,2.437,3.672,5.148,3.775C88.009,124.39,91.63,124.87,95.371,125.214Z" transform="translate(1.931 46.003)" fill="#0c0c0c"/>
    <path id="Trazado_75" data-name="Trazado 75" d="M350.436,174.3c-8.426-.1-13.952-4.17-16.492-12.116-1.115-3.518-2.111-7.088-3.535-10.485-1.339-3.14-.292-4.445,2.729-5.251a258.435,258.435,0,0,0,27.973-9.37c2.917-1.167,4.479-.669,5.234,2.643.738,3.243,2.111,6.332,3.037,9.542C373.483,163.318,365.023,174.455,350.436,174.3Z" transform="translate(202.579 63.947)" fill="#0c0c0c"/>
    <path id="Trazado_76" data-name="Trazado 76" d="M61.261,188.2c-.12.875-.326,2.094-.463,3.312-.824,6.813-.824,6.847,5.9,7.379,1.871.154,3.724.1,3.175,2.8-.429,2.008.36,5.045-3.415,4.565-10.64-1.39-21.314-2.282-32.023-2.8-2.2-.1-2.488-1.39-2.334-3.209.429-4.908.532-9.85,1.2-14.707C34.37,177.8,40.788,173.3,48.974,174.2,56.885,175.055,61.587,180.272,61.261,188.2Z" transform="translate(-10.654 90.856)" fill="#0c0c0c"/>
    <path id="Trazado_77" data-name="Trazado 77" d="M331.811,146.4c-3.381-3.261-5.234-6.2-1.081-9.816,2.111-1.836,1.785-3.93.206-6.075a34.256,34.256,0,0,1-3.329-5.389c-1.768-3.69-4.136-5.577-8.34-3.655-3.552,1.613-4.96-1.081-5.783-3.535-1.115-3.364,2.265-2.523,3.655-2.8,10.863-2.248,21.777-4.187,32.658-6.384,2.145-.429,3.261.137,4.256,1.939.927,1.682,2.334,3.02.686,5.183C347.084,125.942,339.533,136.1,331.811,146.4Z" transform="translate(190.709 43.97)" fill="#0c0c0c"/>
    <path id="Trazado_78" data-name="Trazado 78" d="M112.886,105.948c.069,5.835-10.022,17.419-15.857,18.277a8.36,8.36,0,0,1-6.779-2.317c-6.727-5.7-13.3-11.549-20.061-17.2-2.265-1.888-1.287-3.123.206-4.685,1.407-1.476,2.488-2.883,4.668-.789Q82.837,106.781,90.937,114c4.925,4.393,7.5,4.1,11.961-.927,4.376-4.942,4.359-7.139-.446-11.5-5.217-4.736-10.5-9.4-15.891-13.952-2.094-1.785-2.231-3.038-.275-5.1,1.768-1.853,2.883-2.591,5.063-.463,5.9,5.8,12.03,11.378,18.053,17.058C111.359,100.955,112.955,103.031,112.886,105.948Z" transform="translate(15.684 24.03)" fill="#0c0c0c"/>
    <path id="Trazado_79" data-name="Trazado 79" d="M184.1,69.771c-4.307,2.265-7.6,3.055-9.7-1.7-1.15-2.591-3.209-2.9-5.715-2.128a44.479,44.479,0,0,1-6.109,1.613c-4.239.652-6.8,2.454-6.092,7.276.583,4.067-3,4.256-5.251,4.222-3.278-.034-1.407-2.9-1.27-4.41,1-10.863,2.265-21.692,3.226-32.555.223-2.608,1.27-3.467,3.655-4.153,2.214-.635,3.5-.549,4.908,1.39C169.081,49.435,176.512,59.457,184.1,69.771Z" transform="translate(73.301 -6.893)" fill="#0c0c0c"/>
    <path id="Trazado_80" data-name="Trazado 80" d="M344.685,188.282c.5,3.295,1.047,6.607,1.493,9.919.189,1.407,1.253,3.415-1.544,3.4-1.819-.017-4.17.583-4.445-2.351-.618-6.659-1.167-13.317-1.75-19.993-.223-2.557,1.476-2.866,3.381-2.883a201.4,201.4,0,0,0,30.444-3.106c2.437-.395,3.518.206,3.724,2.832.463,5.783,1.15,11.549,1.836,17.316.292,2.523-.36,4.033-3.175,4.29-3.158.292-2.2-2.128-2.385-3.57-.395-3.14-.618-6.315-.772-9.473-.172-3.535-2.059-4.5-5.286-3.9-2.8.515-5.852.463-4.822,4.908.7,3.072.875,6.264,1.339,9.4.292,1.888.515,3.535-2.282,3.518-2.128-.017-3.81-.034-3.827-2.917-.017-2.8-.7-5.612-.635-8.409.1-4.942-2.66-5.08-6.5-4.754C345.594,182.859,343.981,184.4,344.685,188.282Z" transform="translate(208.725 90.191)" fill="#0c0c0c"/>
    <path id="Trazado_81" data-name="Trazado 81" d="M67.829,166.783c2.368.189,2.952-1.63,3.449-3.295,1.03-3.535,1.819-7.156,2.832-10.709.378-1.3.275-3.741,2.814-2.248,1.424.841,4.17.755,3.14,3.827-2.111,6.332-4.136,12.682-6.144,19.049-.635,2.042-1.853,2.282-3.638,1.579a242.344,242.344,0,0,0-30.633-9.713c-2.059-.515-2.4-1.579-1.785-3.467,1.9-5.852,3.707-11.721,5.56-17.59.635-2.008,1.768-2.746,3.981-2.179,2.711.686,2.094,2.317,1.493,4.016-.927,2.66-1.768,5.354-2.935,7.911-1.819,3.981-.618,5.921,3.5,7.345,4.7,1.63,5.406-1.047,6.178-4.393.583-2.557,1.459-5.063,2.059-7.637.463-2.025,1.184-3.278,3.569-2.351,2.025.789,3.432,1.647,2.282,4.239a65.619,65.619,0,0,0-2.437,6.967C59.317,163.8,61.668,166.8,67.829,166.783Z" transform="translate(-6.702 67.774)" fill="#0c0c0c"/>
    <path id="Trazado_82" data-name="Trazado 82" d="M82.311,300.589c-4.616.789-9.233,1.544-13.849,2.368-1.253.223-2.4.515-3.295-.755-1-1.407-.549-2.557.343-3.827a47.635,47.635,0,0,0,6.5-11.687c-2.986,1.853-6.024,3.621-8.924,5.595-1.836,1.253-2.952,1.184-4.273-.772-1.647-2.4.1-2.952,1.6-3.878,5.972-3.707,11.91-7.482,17.9-11.155,1.356-.841,2.591-2.643,4.548-.721,2.025,1.991,1.167,3.655-.154,5.543-3.724,5.3-7.328,10.691-11.395,16.646,5.869.017,10.811-1.562,15.874-2.317,1.9-.292,3.793-.755,5.715-1.047,2.094-.309,2.608,1.39,3.312,2.78.875,1.733-.721,2.145-1.647,2.729-6.384,4.05-12.837,8-19.186,12.1-1.939,1.253-3,1.03-4.222-.927-1.218-1.939-.378-2.814,1.218-3.724,3.449-2.008,6.864-4.084,10.3-6.144A8.294,8.294,0,0,1,82.311,300.589Z" transform="translate(8.024 163.052)" fill="#0d0d0d"/>
    <path id="Trazado_83" data-name="Trazado 83" d="M132.8,91.616c-1.356.275-1.9-.738-2.334-1.665a301.407,301.407,0,0,0-14.93-28.47c-1.064-1.785-.6-2.849,1.133-3.775C122.4,54.651,128.15,51.6,133.8,48.387c2.591-1.476,3.758-.206,5.028,1.819,1.7,2.677-.7,2.952-2.059,3.655-3.415,1.8-6.882,3.535-10.4,5.114-4,1.768-1.939,4.084-.755,6.367,1.15,2.231,2.111,4.633,5.423,2.471,2.8-1.819,5.818-3.278,8.666-5.011,2.025-1.236,3.295-1.236,4.513,1.2,1.133,2.282.91,3.415-1.442,4.462-3.055,1.339-5.938,3.055-8.958,4.462-2.437,1.133-3.072,2.557-1.562,4.96,1.493,2.368,2.763,4.891,4.067,7.379C138.086,88.63,136.473,91.5,132.8,91.616Z" transform="translate(48.711 0.384)" fill="#0c0c0c"/>
    <path id="Trazado_84" data-name="Trazado 84" d="M311.12,332.47c.017,7.86-6.024,14.124-13.471,13.986-8.2-.172-15.308-7.62-15.188-15.943a13.47,13.47,0,0,1,13.266-13.643C304.015,316.785,311.1,323.975,311.12,332.47Z" transform="translate(168.652 193.106)" fill="#0d0d0d"/>
    <path id="Trazado_85" data-name="Trazado 85" d="M47.971,266.521c.1-7.894,7.465-14.6,15.874-14.45,7.963.154,13.969,5.989,13.952,13.574-.017,7.928-7.242,14.759-15.634,14.793A13.757,13.757,0,0,1,47.971,266.521Z" transform="translate(0.731 146.701)" fill="#0d0d0d"/>
    <path id="Trazado_86" data-name="Trazado 86" d="M171.241,338.431A13.991,13.991,0,0,1,184.953,352.9c-.069,8.684-6.658,15.565-14.724,15.359-7.688-.206-13.609-6.659-13.437-14.69C156.963,345.072,163.433,338.311,171.241,338.431Z" transform="translate(78.657 208.545)" fill="#0d0d0d"/>
    <path id="Trazado_87" data-name="Trazado 87" d="M124.348,326.558c-.069,3.861-1.785,7.654-5.183,8.46-5.371,1.27-6.092,4.805-6.779,9.027-.206,1.3.412,3.827-2.128,3.175-1.733-.446-3.6-1.7-3.089-4.222a46.427,46.427,0,0,1,1.081-5.148c.961-2.952-.36-4.737-2.763-6.041-3.055-1.647-3.364,1.442-4.616,2.814-.824.91-1.321,2.111-2.2,2.952-1.6,1.527-2.506-.378-3.518-1.03-1.733-1.133-.738-2.4.172-3.552a196.946,196.946,0,0,0,13.18-18.465c.5-.824.91-1.888,2.351-1.7,3,.378,12.648,9.113,13.248,12.15A15.907,15.907,0,0,1,124.348,326.558Z" transform="translate(33.842 190.197)" fill="#0d0d0d"/>
    <path id="Trazado_88" data-name="Trazado 88" d="M345.553,245.4c2.952.549,6.35.892,7.585,3.467,2.317,4.788,5.921,3.775,9.747,3.432,1.39-.12,3.9-1.991,4.05,1.15.1,2.076-.978,4.136-3.741,4.222-1.768.051-3.518.309-5.286.326-3.055.034-3.672,2.334-4.273,4.548-.841,3.089,1.956,2.746,3.518,3.432,1.579.686,3.81.343,4.634,2.076.395.841-.36,2.334-.807,3.449-.738,1.836-1.991.738-3.072.378-7.019-2.334-14.038-4.633-21.022-7.019-1.218-.412-3.278-.5-2.729-2.488,1.493-5.371,2.094-11.189,6.641-15.222A8.258,8.258,0,0,1,345.553,245.4Z" transform="translate(205.608 141.926)" fill="#0d0d0d"/>
    <path id="Trazado_89" data-name="Trazado 89" d="M287.642,55.92c6.281,5.148,13.523,9.181,20.319,13.883,1.373.944-.6,2.454-1.167,3.621-.755,1.545-1.853,1.081-3.055.378-2.076-1.218-4.136-4.342-6.041-3.432-2.248,1.064-3.638,4.1-5.183,6.435-3.312,4.994-6.384,10.142-9.765,15.1-1.218,1.785-1.459,5.389-5.629,2.729-4.273-2.711-1.939-4.582-.257-7,3.724-5.354,7.122-10.949,11.155-16.063,3.535-4.5,3.587-7.465-2.162-9.679-1.013-.378-3.175-.961-2.025-2.9A5.869,5.869,0,0,1,287.642,55.92Z" transform="translate(163.093 6.237)" fill="#0c0c0c"/>
    <path id="Trazado_90" data-name="Trazado 90" d="M241.607,360.545c.7,5.165-1.871,7.74-6.487,8.718-1.544.326-3.123.6-4.685.789-8.049.944-10.588-.944-11.721-8.889-.738-5.234-1.236-10.5-1.991-15.72-.292-2.025-.292-3.4,2.282-3.672,2.506-.275,3.02,1.1,3.209,3.055.5,5.08,1.047,10.177,1.476,15.256.343,4.084,2.317,6.109,6.556,5.612,3.861-.463,6.967-1.476,6.264-6.435-.721-5.063-1.253-10.142-1.888-15.2-.24-1.974-.7-3.81,2.3-4.256,3.175-.463,2.969,1.665,3.158,3.518C240.629,349.1,241.11,354.9,241.607,360.545Z" transform="translate(121.486 209.478)" fill="#0d0d0d"/>
    <path id="Trazado_91" data-name="Trazado 91" d="M326.132,287.49c4.96.343,8.443,2.454,10.657,6.435,2.145,3.861,1.236,7.5-1.356,10.777-2.471,3.123-6.247,6.127.309,8.975,1.63.7.944,2.025,0,2.986-.875.91-1.356,2.832-3.226,1.459q-10.194-7.491-20.353-15.033c-.635-.463-.961-1.2-.446-1.819,3.552-4.29,5.646-9.85,10.76-12.768A14.358,14.358,0,0,1,326.132,287.49Z" transform="translate(189.421 172.067)" fill="#0d0d0d"/>
    <path id="Trazado_92" data-name="Trazado 92" d="M371.261,234.143c-.12.944-.206,2.54-.532,4.084-1.544,7.328-3.432,8.769-10.914,7.911-5.577-.635-11.12-1.579-16.7-2.351-1.785-.24-3.02-.755-2.591-2.986.412-2.128,1.287-2.917,3.621-2.437,4.977,1.03,10.056,1.647,15.033,2.66,4.668.961,6.9-.875,7.637-5.44.789-4.822-1.459-6.744-5.886-7.311-4.874-.618-9.713-1.527-14.587-2.214-1.768-.24-3.037-.6-2.78-2.849.275-2.3,1.442-2.986,3.587-2.574,6.367,1.253,12.785,2.334,19.118,3.724C371.244,225.476,371.519,229.441,371.261,234.143Z" transform="translate(210.172 124.112)" fill="#0d0d0d"/>
    <path id="Trazado_93" data-name="Trazado 93" d="M96.2,297.57a17.823,17.823,0,0,1,1.75,1.373c3.055,3.175,6.041,6.418,9.147,9.542,1.459,1.459,1.39,2.711-.051,4.016-1.716,1.562-2.437-.206-3.312-1.115a57.753,57.753,0,0,1-3.793-4.41c-1.853-2.351-3.484-2.832-6.041-.566-2.917,2.574-1.39,4.067.549,5.886,1.545,1.442,2.969,3.02,4.513,4.462,1.3,1.2.789,2.059-.309,3-1.03.91-1.939,1.476-3.089.154-1.613-1.853-3.381-3.6-4.977-5.474-1.544-1.8-2.969-2.334-4.719-.275-1.527,1.8-4.187,3.295-1.476,6.075,1.853,1.888,3.793,3.673,5.715,5.509,1.115,1.047,2.094,2.059.189,3.312-1.236.807-2.248,1.544-3.6,0-3.14-3.57-6.418-7.019-9.73-10.434-1.339-1.373-1.064-2.4.24-3.5a218.967,218.967,0,0,0,17.281-16.337A8.442,8.442,0,0,1,96.2,297.57Z" transform="translate(20.867 179.285)" fill="#0e0e0e"/>
    <path id="Trazado_94" data-name="Trazado 94" d="M348.521,295.208c-.618-.326-1.39-.738-2.179-1.133-6.264-3.209-12.442-6.59-18.826-9.559-2.814-1.3-3.243-2.506-1.682-5.131,1.974-3.312,3.587-6.864,5.268-10.348.789-1.63,1.75-2.711,3.672-1.785,2.351,1.133.875,2.574.206,3.861-.807,1.562-1.613,3.14-2.557,4.616-1.75,2.746-1.6,4.651,1.665,6.3,3.312,1.682,3.947-.5,4.942-2.608.824-1.75,1.716-3.467,2.505-5.251.635-1.442,1.253-2.506,3.106-1.373,1.527.927,1.836,1.888.91,3.432-1,1.665-1.7,3.484-2.694,5.148-1.493,2.523-1.716,4.342,1.51,5.852,3.14,1.476,4.942.841,6.2-2.282.858-2.128,1.853-4.187,2.832-6.247.429-.909.772-2.248,2.162-1.51,1.167.618,2.952,1.442,2.145,3.106-2.282,4.754-4.839,9.387-7.293,14.055A1.521,1.521,0,0,1,348.521,295.208Z" transform="translate(199.071 157.33)" fill="#0d0d0d"/>
    <path id="Trazado_95" data-name="Trazado 95" d="M132.671,351.32c1.682-.24,3.6-1.1,3.964,1.75.326,2.557-1.613,2.8-3.295,3.175a12.679,12.679,0,0,1-15-9.267c-1.613-6.058,1.407-13.918,6.779-17.642,4.96-3.449,10.743-3.261,15.668.5a12.525,12.525,0,0,1,3.6,4.462c.927,1.853.24,2.9-1.287,3.913-1.785,1.2-2.42.017-3.123-1.27-1.853-3.329-4.479-5.595-8.495-4.874-4.033.738-6.178,3.775-7.517,7.414C121.293,346.789,124.982,351.8,132.671,351.32Z" transform="translate(50.814 200.272)" fill="#0e0e0e"/>
    <path id="Trazado_96" data-name="Trazado 96" d="M56.864,228.41c10.331-.069,17.316,9.593,13.163,18.242-.858,1.785-1.647,3.535-4.307,2.437-2.917-1.2-1-2.711-.515-4.2,1.287-4.05,1.081-7.723-3.038-10.108-4.05-2.351-11.017-1.1-14.141,2.471-3.192,3.638-2.042,7.139.429,10.554,1,1.373,3.775,2.282,1.167,4.513-2.523,2.179-3.93-.275-5.183-1.647-3.69-4.033-4.256-8.838-2.282-13.78C44.182,231.739,50.171,228.462,56.864,228.41Z" transform="translate(-4.232 129.759)" fill="#0e0e0e"/>
    <path id="Trazado_97" data-name="Trazado 97" d="M191.564,66.627c.463,2.094.069,3.844-3.9,4.016-4.256.189-3.552-2.4-3.552-4.736-.034-9.542-1.253-18.98-2.248-28.436-.257-2.471-.395-4.307,3.175-4.513,3.535-.189,4.239,1.339,4.239,4.256C189.23,46.754,190.328,56.21,191.564,66.627Z" transform="translate(96.535 -10.218)" fill="#0d0d0d"/>
    <path id="Trazado_98" data-name="Trazado 98" d="M252.942,335.951c1.184.5,3.741-1.064,3.518,2.162-.137,2.145-1.133,2.935-3.381,2.9-2.128-.034-5.114-.5-5.457,2.711-.378,3.449,2.694,3.655,5.028,4.136,4.633.961,7.86,3.158,7.722,8.392-.154,5.183-3.518,7.808-7.98,9.3-1.939.652-3.793.686-4.736-1.8-1.236-3.243,1.733-2.334,2.917-2.9,2.076-1,4.548-1.51,4.445-4.445-.1-3-2.746-3.312-4.857-4.016-6.109-2.059-8.46-4.874-7.74-9.439C243.092,338.525,246.987,335.882,252.942,335.951Z" transform="translate(139.891 206.769)" fill="#0e0e0e"/>
    <path id="Trazado_99" data-name="Trazado 99" d="M279.743,330.729c.12,1.133-1.27,1.39-2.385,1.63-4.033.875-3.775,3.14-2.351,6.178,2.248,4.788,4.222,9.679,6.384,14.5.824,1.853,1.75,3.432-1.047,4.634-2.746,1.184-3.364-.481-4.119-2.368-2.042-5.063-4.222-10.074-6.109-15.188-1.133-3.072-2.488-4.428-5.646-2.282-1.15.772-2.746,2.248-3.844-.223-.978-2.214.223-3.072,2.145-3.827,4.41-1.733,8.786-3.6,13.111-5.577C278.1,327.194,279.142,327.983,279.743,330.729Z" transform="translate(152.767 200.921)" fill="#0e0e0e"/>
    <path id="Trazado_100" data-name="Trazado 100" d="M207.976,354.084c-.137,5.217,1.03,10.588-1.579,15.479-.824,1.544-1.39,4.565-4.359,3-2.591-1.356-1.527-3.055-.36-5.148,2.334-4.17,1.407-8.872,1.321-13.4-.069-3.329-.343-6.641-.549-9.971-.137-2.3,1.356-2.385,3.072-2.471,1.9-.1,2.454.841,2.454,2.505C207.942,347.425,207.959,350.754,207.976,354.084Z" transform="translate(109.915 210.791)" fill="#0d0d0d"/>
    <path id="Trazado_101" data-name="Trazado 101" d="M152.542,337.083q-3.5,11.815-7,23.648c-.618,2.076-2.077,1.253-3.4,1.013-1.665-.309-2.506-1.013-1.939-2.883,2.368-7.688,4.736-15.393,7-23.1.566-1.9,1.716-1.956,3.209-1.476C151.77,334.732,153.229,335.144,152.542,337.083Z" transform="translate(66.655 205.396)" fill="#111"/>
    <path id="Trazado_102" data-name="Trazado 102" d="M305.21,108.951c-16.526-11.464-33.619-21.88-52.788-28.419q-8.469-2.883-16.972-5.7c.463-.961,1.527-.412,2.2-.875,24.884,7.156,47.879,18.053,68.112,34.391.1.275.206.566.326.841C305.793,109.123,305.5,109.037,305.21,108.951Z" transform="translate(134.988 19.156)" fill="#3f3f3f"/>
    <path id="Trazado_103" data-name="Trazado 103" d="M256.215,94.973a225.28,225.28,0,0,0-61.385-7.585q4.736-.875,9.473-1.768c16.749-.069,33.1,2.694,49.252,6.933C254.842,92.9,256.524,92.845,256.215,94.973Z" transform="translate(105.9 27.505)" fill="#272727"/>
    <path id="Trazado_104" data-name="Trazado 104" d="M234.247,85.03a167.747,167.747,0,0,1,56.889,28.11c-18-12.15-37.7-20.525-58.3-27.012C232.909,85.236,233.75,85.339,234.247,85.03Z" transform="translate(133.119 27.083)" fill="#3d3d3d"/>
    <path id="Trazado_105" data-name="Trazado 105" d="M233.62,78.86a195.982,195.982,0,0,1,57.4,25.553c-.755.309-1.167.618-1.339.515C271.735,93.824,252.429,85.9,232.23,80.01,232.213,79.049,233.122,79.186,233.62,78.86Z" transform="translate(132.682 22.665)" fill="#444"/>
    <path id="Trazado_106" data-name="Trazado 106" d="M255.968,72.664c-14.913-3.484-29.843-6.779-45.048-8.8,15.908,0,31.268,3.278,46.421,7.757C257.427,72.681,257.032,73.11,255.968,72.664Z" transform="translate(117.422 11.923)" fill="#252525"/>
    <path id="Trazado_107" data-name="Trazado 107" d="M257.6,77.533c-.738.292-1.459.583-2.2.875C239.7,74.324,223.67,72.025,207.59,70c1.493-.343,3-.686,4.5-1.03A210.516,210.516,0,0,1,257.6,77.533Z" transform="translate(115.037 15.583)" fill="#272727"/>
    <path id="Trazado_108" data-name="Trazado 108" d="M273.654,110.186c-9.113-4.805-18.071-9.971-28.024-12.974q-5.895-2.394-11.79-4.771c.189-.446.395-.875.583-1.321,14.415,4.651,28.3,10.5,41.066,18.929C274.872,110.1,274.254,110.134,273.654,110.186Z" transform="translate(133.835 31.445)" fill="#444"/>
    <path id="Trazado_109" data-name="Trazado 109" d="M256.921,75.2c14.089,6.418,27.544,13.866,39.471,23.854.137.309.275.618.429.927l-.978-.309a319.584,319.584,0,0,0-40-23.631A1.348,1.348,0,0,1,256.921,75.2Z" transform="translate(149.589 20.044)" fill="#494949"/>
    <path id="Trazado_110" data-name="Trazado 110" d="M318.511,237.734c-3.9,11.944-9.542,23.082-15.84,33.91a.932.932,0,0,1-1.442,0c6.367-11.258,11.343-23.15,16.252-35.094Z" transform="translate(182.094 135.588)" fill="#c9c9c9"/>
    <path id="Trazado_111" data-name="Trazado 111" d="M246.571,87.226c-.463.36-.927.738-1.39,1.1q-14.776-3.166-29.551-6.315C226.356,81.58,236.5,84.223,246.571,87.226Z" transform="translate(120.795 24.887)" fill="#313131"/>
    <path id="Trazado_112" data-name="Trazado 112" d="M322.016,242.64a136.481,136.481,0,0,1-15.376,30.409c5.028-10.417,9.662-21.022,14.381-31.559C321.347,241.868,321.673,242.262,322.016,242.64Z" transform="translate(185.968 139.126)" fill="#c7c7c7"/>
    <path id="Trazado_113" data-name="Trazado 113" d="M270.291,80.084c-.36.275-.738.566-1.1.841q-16.011-5.74-32.023-11.5c.463-.343.91-.7,1.373-1.047A183.44,183.44,0,0,1,270.291,80.084Z" transform="translate(136.22 15.16)" fill="#363636"/>
    <path id="Trazado_114" data-name="Trazado 114" d="M283.261,121.045c-.583,1.03-1.373,1-2.145.292a179.928,179.928,0,0,0-21.537-16.784,1.321,1.321,0,0,1-.412-1.853C268.279,107.4,275.9,114.043,283.261,121.045Z" transform="translate(151.823 39.737)" fill="#303030"/>
    <path id="Trazado_115" data-name="Trazado 115" d="M320.04,255.565q4.247-13.231,8.495-26.445c.326.755.669,1.527,1,2.282a156.084,156.084,0,0,1-8.478,25.416C320.092,256.9,319.474,256.715,320.04,255.565Z" transform="translate(195.409 130.268)" fill="#dcdcdc"/>
    <path id="Trazado_116" data-name="Trazado 116" d="M204.4,75.543c1.922-.343,3.827-.669,5.749-1.012a129.578,129.578,0,0,1,20.1,2.437c-.034.5-.086.978-.12,1.476Q217.254,76.975,204.4,75.543Z" transform="translate(112.753 19.564)" fill="#1e1e1e"/>
    <path id="Trazado_117" data-name="Trazado 117" d="M191.13,64.629c4.719-1.768,9.627-.7,14.432-.978,2.248-.12,4.531.206,6.659-.755,2.866-.189,5.749-.412,8.512.378-.017.446-.017.91-.034,1.356Z" transform="translate(103.25 11.103)" fill="#252525"/>
    <path id="Trazado_118" data-name="Trazado 118" d="M241.469,80.579c-.463.378-.927.772-1.39,1.15q-9.4-1.956-18.809-3.93c.069-.446.154-.892.223-1.339C228.323,76.717,234.862,78.863,241.469,80.579Z" transform="translate(124.834 20.946)" fill="#2b2b2b"/>
    <path id="Trazado_119" data-name="Trazado 119" d="M310.546,233.159a124.012,124.012,0,0,1-7.414,19.049c-.858.086-1.579.034-.927-1.115q3.733-9.988,7.482-19.993C309.962,231.769,310.254,232.456,310.546,233.159Z" transform="translate(182.611 131.686)" fill="#d5d5d5"/>
    <path id="Trazado_120" data-name="Trazado 120" d="M343.3,230.423c-.052,1.15-.172,2.574-1.115,2.179-3.278-1.356-3.038-4.994-4.307-7.654-.5-1.03,1.013-2.54,1.527-2.265C342.532,224.348,342,228,343.3,230.423Z" transform="translate(208.269 125.635)" fill="#161616"/>
    <path id="Trazado_121" data-name="Trazado 121" d="M66.435,194.741A71.25,71.25,0,0,1,68.563,175.4c.343.789.686,1.6,1.047,2.385-.7,5.663-1.39,11.343-2.094,17.007A.72.72,0,0,1,66.435,194.741Z" transform="translate(13.946 91.798)" fill="#dfdfdf"/>
    <path id="Trazado_122" data-name="Trazado 122" d="M279.689,89.1c5.389,3.329,9.868,7.688,14.4,12l-.824,1.03q-7.053-6.2-14.124-12.407A6.4,6.4,0,0,1,279.689,89.1Z" transform="translate(166.275 29.998)" fill="#515151"/>
    <path id="Trazado_123" data-name="Trazado 123" d="M276.649,94a55.774,55.774,0,0,1,12.922,11.515A72.858,72.858,0,0,1,276.1,94.6,5.986,5.986,0,0,1,276.649,94Z" transform="translate(164.098 33.507)" fill="#4a4a4a"/>
    <path id="Trazado_124" data-name="Trazado 124" d="M74.266,182.883,73.236,195.5c-2.506-.378-1.133-2.008-1.064-3.226.24-3.552-.223-7.19,1.1-10.64C73.614,182.042,73.94,182.454,74.266,182.883Z" transform="translate(17.751 96.26)" fill="#efefef"/>
    <path id="Trazado_125" data-name="Trazado 125" d="M89.462,212.93c.5-8.134,1.012-16.252,3.312-24.128,2.145-2.9,5.749-3.261,8.615-4.874,5.921-3.329,7.208-5.938,5.183-12.579-.824-2.711-1.665-5.32-.721-8.237,1.768-5.509,4.822-6.882,9.833-3.981,1.682.978,2.849,1.562,3.415-.91.738-3.243,3.226-3.844,6.024-4.05,4,1.476,5.783,4.96,7.6,8.409-.12,2.179-.635,4.1-3.106,4.668,2.231-.515,4.616-.189,6.95-.532,1.562.154,2.351,1.356,3.346,2.351,13.4,13.523,25.982,27.835,39.711,41.049a41.621,41.621,0,0,0,8.392,6.4c2.042,1.167,4.307,2.334,6.332.36,2.145-2.094,1.236-4.582-.034-6.83a56.627,56.627,0,0,0-7.654-10.091c-6.624-7.311-13.746-14.175-19.873-21.915-1.956-2.471-5.457-5.371-2.265-8.7,3.552-3.724,6.693.12,9.01,2.248,7.774,7.173,14.3,15.548,21.245,23.511,6.006,6.9,11.258,14.467,18.088,20.679a39.758,39.758,0,0,0,6.676,5.183c4.994,2.9,7.328,2.523,11.549-1.8a8.866,8.866,0,0,1,8.546-.583c4.874,2.008,10.125,2.917,14.862,5.268,2.694,1.339,5.131,2.814,6.71,5.612a6.337,6.337,0,0,0,5.457,3.4c5.9.395,8.563,4.857,5.354,9.868-4.857,7.585-2.9,14.124,1.785,20.456,2.437,3.295,3.844,7.654,8.237,9.215a3.624,3.624,0,0,1,1.133,1.15,61.127,61.127,0,0,1-2.694,29.912,14.192,14.192,0,0,0-.875,5.183,27.79,27.79,0,0,1-2.282,12.871c-1.51,3.192-.961,6.573.927,9.627.549.892,1.27,1.853,2.437,1.8,1.407-.052,1.27-1.424,1.63-2.351,1.321-3.449,2.471-6.985,3.69-10.468.772-2.2,1.7-4.29,4.033-5.286,3.295-1.064,4.651,1.493,6.487,3.364,18.791,19.083,37.137,38.612,57.112,56.494,3.964,3.552,8.975,5.56,13.248,8.666,1.819,1.321,4.136,2.54,1.991,5.371-63.41,33.91-126.477,33.464-189.167-1.956-.91-2.042.463-3.175,1.939-3.672,8.975-2.969,15.445-9.713,22.824-15.067,10.743-7.774,21.709-15.085,34.614-18.963a25.125,25.125,0,0,0,8.066-3.913c3.14-2.385,3.175-5.028-.1-7.259-4.719-3.226-9.816-3.535-15.1-1.287-7.293,3.089-14.45,6.573-21.9,9.3-1.167.429-2.317.824-3.5,1.184-2.042.635-3.913.515-5.183-1.356-1.424-2.128-.6-4.033.944-5.732,1.424-1.579,3.089-2.883,4.616-4.325,17.848-16.989,36.811-32.9,52.05-52.5a24.091,24.091,0,0,0,3.484-5.9c.824-2.077,1.15-4.153-.549-5.938-1.647-1.733-3.775-1.8-5.9-1.236-3.707.978-6.538,3.381-9.181,6.006C237.185,285.658,227.609,295.3,218,304.9a114.4,114.4,0,0,1-11.67,9.9c-2.008,1.527-4.462,2.9-6.641.532-2.214-2.4-.532-4.891,1.15-6.573,7.379-7.311,13.454-15.823,21.64-22.412,6.727-5.406,12.339-12.081,18.551-18.088,4.788-4.651,10.468-8.409,14.192-14.141.292-.446.686-.807,1.013-1.218,3.329-4.41,3.878-8.375,1.51-11.086-2.54-2.917-6.95-2.866-11.567.223a54.312,54.312,0,0,0-8.478,7.139c-13.986,14.158-26.617,29.62-41.152,43.28-1.922,1.8-3.655,3.827-6.161,4.908-1.871.807-3.707,1.3-5.423-.257-1.9-1.733-1.647-3.81-.583-5.8,2.557-4.771,6.8-8.014,10.709-11.549,11.12-10.022,22.635-19.632,32.023-31.439a29.383,29.383,0,0,0,5.045-8.014c.892-2.454,1.03-4.908-1.081-6.864-1.956-1.819-4.256-1.459-6.453-.515-4.771,2.042-8.649,5.371-12.356,8.924-11.738,11.206-22.052,23.785-33.842,34.923a71.932,71.932,0,0,1-7.74,6.367c-1.888,1.339-3.964,1.819-5.8.069-2.025-1.939-1.613-4.136-.051-6.178A78.2,78.2,0,0,1,176.3,264.653a121.331,121.331,0,0,0,19.169-19.632c1.613-2.162,3.329-4.668,1.287-7.19-2.317-2.849-5.286-1.27-7.671.137-8.409,4.977-15.308,11.807-22.309,18.534-2.8,2.694-4.771,6.761-9.473,6.916-2.4-.652-3.707-2.574-4.977-4.479a58.735,58.735,0,0,0-6.779-8.083c-1.7-1.768-3.278-2.746-6.006-1.922a7.88,7.88,0,0,1-9.284-3.312c-1.75-2.574-3.741-2.8-6.35-1.647-4.977,2.179-10.3,3.741-13.729,8.478-.807,1.115-2.214,1.733-3.4,2.471-5.972,3.724-7.19,9.782-3.089,15.445,1.51,2.094,3.484,1.973,5.68,1.424,3.913-1.012,7.877-1.9,11.755-3.02,3.364-.978,6.5-.412,8.8,1.991,3.175,3.295,8.7,4.531,9.3,10.176.12,2.42-1.665,3.758-3.106,5.217-7.551,7.5-15.479,14.656-20.645,24.18-.944,1.733-2.2,3.278-4.6,2.282-10.829-19.255-16.989-40.037-20.113-61.78-.618-4.342-.824-8.752-1.2-13.128-.549-5.68.172-6.264,5.509-4.788,2.523.7,4.805,2.334,6.882,1.956-3.467.154-6.95-2.694-11.1-2.849-1.579-.051-1.733-1.51-1.682-2.814C89.273,223.81,88.621,218.352,89.462,212.93Z" transform="translate(30.132 76.595)" fill="#fefefe"/>
    <path id="Trazado_126" data-name="Trazado 126" d="M202.105,242.953a7.635,7.635,0,0,0-.257-.892c-2.145-2.059-2.9-4.616-1.459-7.156,1.9-3.312,4.754-5.646,8.872-5.766a12.57,12.57,0,0,1,8.666,3.261c6.8,5.869,14.072,11.206,20.3,17.727a323.546,323.546,0,0,1,24.18,23.854,312.684,312.684,0,0,0-23.425-23.065c-6.659-7.139-14.381-13.094-21.983-19.1a37.766,37.766,0,0,1-9.078-10.777,11.369,11.369,0,0,1-.532-11.6c3.175-6.178,7.551-7.774,14.055-5.2,4.908,1.939,8.478,6.144,13.506,7.825a6.039,6.039,0,0,1,1.888,1.665c1.356,4.736,5.972,6.761,8.752,10.365,2.162,2.8,5.08,5.131,7.637,7.671,10.829,9.747,21.108,20.079,28.813,27.526-7.808-8.031-18.74-18.38-29.774-28.608-4.393-4.736-9.765-8.563-12.888-14.415-.772-2.282-2.711-3.947-2.883-6.676-.5-8.512,4.754-13.111,12.974-10.743,8.066,2.317,14.158,8.014,19.958,13.54,15.188,14.45,31.182,28.127,44.464,44.55-3.192-7.294-6.315-14.553-9.645-21.709-3.724-8.066-2.317-16.44,3.5-22.584,4.479-4.736,7.053-4.736,11.738.069.738.755,1.647,1.3,2.42,2.042,5.509,11.91,10.074,24.3,18.139,34.906,3.6,4.736,6.967,9.645,10.829,14.209a59.451,59.451,0,0,1,6.538,8.272c2.608,3.947,4.2,8.186,3.072,13.042a186.214,186.214,0,0,1-60.115,65.3c-3.5,2.351-7.139,4.462-10.709,6.693-.446-2.54-2.78-3.072-4.548-3.981a90.076,90.076,0,0,1-22.533-17.178Q237.1,310.1,211.492,284.328c-5.629-2.179-9.1-9.885-6.8-15.05a8.247,8.247,0,0,1,9.507-4.839c3.6.721,6.315,2.952,9.061,5.148,10.022,8.031,18.826,17.384,27.938,26.394-8.649-8.46-16.869-17.384-26.359-24.969-4.651-4.273-10.142-7.534-14.484-12.219C206.138,254.193,203.821,248.753,202.105,242.953Z" transform="translate(109.35 108.146)" fill="#949494"/>
    <path id="Trazado_127" data-name="Trazado 127" d="M121.5,201.292c-2.145-2.42-4.273-4.857-6.418-7.276-6.641-2.4-12.648-11.875-12.785-20.147a185.638,185.638,0,0,1,63.376-67.683c2.66-1.716,5.286-3.449,7.928-5.165,12.287,5.028,21.04,14.9,31.147,22.876,10.348,8.186,22.172,13.368,34.1,18.5a4.339,4.339,0,0,1,4.17.566,12.526,12.526,0,0,1,1.9,3c2.059,3.346,1.939,6.315-1.459,8.752a32.019,32.019,0,0,1-2.677,2.385c-3.964,4.033-9.2,3.5-14.175,3.913a6.686,6.686,0,0,1-2.351-.789C216.215,156.4,208.2,152.486,200.1,149a654.74,654.74,0,0,1,48.12,52.479,43.275,43.275,0,0,1,8.169,14.106c1.39,4.342.532,8-2.866,11-3.415,3-7.225,3.381-11.309,1.562a29.3,29.3,0,0,1-10.056-7.6c-11.584-13.266-23.373-26.377-35.438-39.2-.395-.583.721-.378.069-.086-.172.069-.154.24.069.463,12.047,12.51,23.545,25.536,35.06,38.527,3.381,3.81,7.5,6.916,10.966,10.674,2.145,2.317,4.513,4.479,5.577,7.6,2.883,3.93,3.295,8.272,2.574,12.939-.446,2.849-1.424,5.011-4.325,5.921-3.02,2.8-6.281,2.746-10.039,1.442a24.009,24.009,0,0,1-12.133-8.8c-6.247-8.838-13.334-16.955-20.4-25.107-7.053-8.117-14.278-16.063-21.606-23.94,13.317,14.741,26.943,29.225,39.127,44.979,3.552,4.582,5.148,8.649,1.527,13.677-3.827,5.148-7.293,5.9-13.094,2.557-7-4.016-12.27-9.971-17.384-16.046-9.078-10.777-17.8-21.863-27.664-31.937-2.523-2.574-4.839-5.56-9.13-6.624-.275,3.038,1.493,4.857,3,6.538,6.229,6.95,12.6,13.78,18.963,20.593,3.861,4.136,7.62,8.34,10.125,13.454,1.527,3.123,2.351,6.435-.343,9.37-2.9,3.158-6.161,1.7-9.181.154-6.058-3.106-10.794-7.843-15.428-12.7q-18.251-19.1-36.433-38.269C124.2,205.6,121.9,204.313,121.5,201.292Z" transform="translate(39.638 38.534)" fill="#282828"/>
    <path id="Trazado_128" data-name="Trazado 128" d="M101.7,281.344c6.761-12.287,16.492-22.1,26.411-31.748,2.78-8.117,10.056-12.407,15.514-18.242,1.287-1.39,3.037-.395,4.5-.858,6.847-6.35,13.66-12.751,20.576-19.014,4.067-3.672,8.409-7.053,13.592-8.992,2.66-1,5.577-1.63,7.894.807,2.42,2.557,1.939,5.526.566,8.375-2.334,4.857-5.989,8.684-9.8,12.373-6.332,6.127-12.819,12.116-19.1,18.311-2.334,2.3-4.788,4.616-5.886,8.254,3.209.789,4.874-1.356,6.624-2.814,9.233-7.705,17.23-16.663,25.381-25.45,5.869-6.332,11.584-12.837,18.4-18.225a32.607,32.607,0,0,1,9.524-5.595c3.261-1.133,6.3-1,8.855,1.476,2.626,2.557,2.437,5.766,1.373,8.889a33.292,33.292,0,0,1-6.71,10.691c-9.593,11.12-20.593,20.782-31.439,30.6-3.655,3.312-7.414,6.538-10.314,10.588-.755,1.064-2.2,2.351-.807,3.672,1.27,1.236,2.746.12,3.758-.738a110.314,110.314,0,0,0,9.456-8.443c10.9-11.549,21.589-23.27,32.434-34.871,4.445-4.771,8.924-9.559,14.656-12.888,5.663-3.295,10.4-2.883,13.986,1.03,3.055,3.346,2.866,7.62-.755,13.077-3.552,5.337-8.22,9.645-12.888,13.952-14.141,13.042-27.921,26.428-41.049,40.483a25.752,25.752,0,0,0-5.526,7.825c3.793-.892,5.732-2.935,7.774-4.685a380.644,380.644,0,0,0,29.946-29.122c3.724-4.016,7.482-7.98,12.013-11.12a18.879,18.879,0,0,1,7.637-3.484c6.229-1.047,10.331,3.587,8.392,9.593-1.716,5.32-5.148,9.627-8.786,13.712-14.827,16.595-31.2,31.628-47.433,46.8-2.677,2.505-5.423,4.925-8.546,7.757,3.106,1.647,4.788.275,6.367-.378,8.152-3.346,16.234-6.83,24.317-10.331,7.362-3.192,13.815-1.459,19.5,3.69,3.638,3.295,3.484,5.646-.378,8.632a28.58,28.58,0,0,1-9.353,4.839c-14.69,4.273-27.149,12.6-38.9,21.932-7.07,5.612-14.347,10.623-22.807,13.8C141.119,336.826,117.437,312.8,101.7,281.344Z" transform="translate(39.208 107.869)" fill="#232323"/>
    <path id="Trazado_129" data-name="Trazado 129" d="M315.688,304.908c-10.863-13.042-20.645-26.737-26.291-42.971a61.757,61.757,0,0,0-2.935-6.2c-.961-5.612-4-8.049-9.833-7.637-3.346.24-6.573,1.236-9.885,1.768-5.474.858-10.159-.223-13.3-5.3a19.6,19.6,0,0,0-2.591-3.346c-4.977-5.08-6.435-10.709-2.9-17.2,10.245-7.448,19.289-16.286,28.865-24.523,1.579-1.356,3.346-2.523,5.028-3.775,6.264-3.5,6.161-3.415,10.983,1.733,2.454,2.626,5.44,4.479,9.387,2.917,2.608-1.03,5.114-.412,7.705.395,4.736,1.51,6.607,1.339,10.811-.755-6.127-.309-9.627-5.938-15.634-4.531a2.9,2.9,0,0,1-3.106-1.665c-1.407-4.016-4.891-6.813-6.229-10.829,2.179-2.042,4.273-4.153,6.538-6.092a100.275,100.275,0,0,0,22.79-28.058c1.167-2.128,2.111-4.479,4.342-5.835a201.948,201.948,0,0,1,13.437,31.422c3.947,12.459,7.053,25.107,7.757,38.235-.961.343-1.647-.051-2.471-1.133a42.468,42.468,0,0,1,2.54,4.256c.549,8.563,1.9,17.11.292,25.69-1.7-.91-1-2.334-.858-3.69.206-2.076-.292-3.844-2.849-4.445-.463-.275-.618.824-.36.172.051-.12.189,0,.463.069,2.677.669,2.746,2.488,2.643,4.857-.309,7.4-4.616,12.322-10.091,16.3-4.634,3.381-6.144,7.242-4.325,12.734a11.852,11.852,0,0,1-2.8,12.7c-3.449,3.484-5.32,7.688-7.1,12.15C323.685,297.46,322.14,303.226,315.688,304.908Z" transform="translate(142.546 68.603)" fill="#c6c6c6"/>
    <path id="Trazado_130" data-name="Trazado 130" d="M286.61,268.209c7.173-8.1,8-19.873,16.063-27.578,2.626-2.523,2.231-6.4,1.133-10.022-2.179-7.242-1.407-9.421,4.7-14,4.6-3.449,8.443-7.465,10.777-12.768.6-1.39,1.493-3.038.137-4.445-1.253-1.3-2.608-.1-3.913.206a19.161,19.161,0,0,1-3.089.566c-.841.069-1.9.069-2.179-.978-.292-1.1.669-1.459,1.459-1.836a1.324,1.324,0,0,1,.5-.172c3.226-.051,6.315-4.805,8.8-2.077,1.75,1.922.721,6.367.927,9.7a122.185,122.185,0,0,1-4.445,31.508c-1.956,3.123-4.788,5.663-5.818,9.4-.91,3.329-1.064,6.538.566,9.679-3.02,11.584-8.272,22.206-14.038,32.606C295.517,280.719,292.119,273.855,286.61,268.209Z" transform="translate(171.624 105.303)" fill="#fefefe"/>
    <path id="Trazado_131" data-name="Trazado 131" d="M110.235,143.48c4.719,6.418,7.345,14.175,12.785,20.147-3.209.789-3.449,3.123-2.883,5.766.429,2.008.721,4.033-1.6,4.925-2.317.91-2.883-1.253-3.844-2.66-1.321-1.939-2.3-5.148-5.354-3.758a5.332,5.332,0,0,0-2.54,7.259c3.243,5.457.154,11.429,2.248,16.835a2.547,2.547,0,0,1-.721,2.917c-1.184.892-1.871-.12-2.54-.927-1.75-2.128-3.484-1-5.08.12a13.83,13.83,0,0,1-9.49,2.385C94.12,177.562,101.1,160.143,110.235,143.48Z" transform="translate(31.704 68.94)" fill="#c6c6c6"/>
    <path id="Trazado_132" data-name="Trazado 132" d="M303.186,237.836c-5.165-2.3-5.3-11.464-.154-16.046a11.029,11.029,0,0,1,5.389-3.02A68.853,68.853,0,0,1,303.186,237.836Z" transform="translate(180.669 122.856)" fill="#c6c6c6"/>
    <path id="Trazado_133" data-name="Trazado 133" d="M89.7,188.41c.069,4.393.24,8.786.137,13.18-.069,3.14,1.167,4.754,4.256,5.612a50.172,50.172,0,0,0,14.089,1.562c1.2-.017,2.883-.017,2.866,1.579s-1.716,1.442-2.9,1.527a22.817,22.817,0,0,1-12.3-2.076c-3.364-1.7-5.818-.858-6.127,3.4A76.478,76.478,0,0,1,89.7,188.41Z" transform="translate(29.895 101.115)" fill="#c8c8c8"/>
    <path id="Trazado_134" data-name="Trazado 134" d="M72.385,187.83c.36,1.081.7,2.145,1.064,3.226v23.082A61.645,61.645,0,0,1,72.385,187.83Z" transform="translate(17.555 100.699)" fill="#a6a6a6"/>
    <path id="Trazado_135" data-name="Trazado 135" d="M325.536,244.53c.343.412.669.824,1.012,1.253a134.163,134.163,0,0,1-14.4,28.161C316.938,264.282,321.108,254.346,325.536,244.53Z" transform="translate(189.914 141.303)" fill="#c7c7c7"/>
    <path id="Trazado_136" data-name="Trazado 136" d="M307.747,242.74c.309.378.618.755.927,1.115a105.948,105.948,0,0,1-14.484,24.866Q300.986,255.748,307.747,242.74Z" transform="translate(177.052 140.021)" fill="#bababa"/>
    <path id="Trazado_137" data-name="Trazado 137" d="M66.829,186.67l1.081.051v24.026c-.652,0-1.287-.017-1.939-.017C66.143,202.7,65.25,194.667,66.829,186.67Z" transform="translate(13.552 99.869)" fill="#dfdfdf"/>
    <path id="Trazado_138" data-name="Trazado 138" d="M83.408,213.32c-.378-9.01-.48-18.019,1.115-26.96-.635,8.992.051,18-.36,26.977-.137.24-.275.481-.395.738A7.545,7.545,0,0,1,83.408,213.32Z" transform="translate(25.941 99.647)" fill="#f0f0f0"/>
    <path id="Trazado_139" data-name="Trazado 139" d="M78.773,193.088v20.9c-.686-6.95-2.2-13.866-1-20.868C78.087,192.3,78.413,192.281,78.773,193.088Z" transform="translate(21.755 104.039)" fill="#bebebe"/>
    <path id="Trazado_140" data-name="Trazado 140" d="M300.406,286.54c-4.239,3.587-8.443,7.379-12.476,11.429Q294.185,292.255,300.406,286.54Z" transform="translate(172.569 171.387)" fill="#595959"/>
    <path id="Trazado_141" data-name="Trazado 141" d="M309.206,188.824c-1.476-1.476-3.055-2.866-4.376-4.462-.755-.927-1.373-2.471-.24-3.329,1.373-1.047,2.128.549,2.8,1.459a26.361,26.361,0,0,1,1.768,3.209C309.155,186.748,309.172,187.795,309.206,188.824Z" transform="translate(184.054 95.586)" fill="#f3f3f3"/>
    <path id="Trazado_142" data-name="Trazado 142" d="M76.475,229.75a28.457,28.457,0,0,1-2.883-15.84Q75.033,221.813,76.475,229.75Z" transform="translate(18.974 119.376)" fill="#717171"/>
    <path id="Trazado_143" data-name="Trazado 143" d="M304.639,257h1.441c-2.506,4.719-5.286,9.233-9.61,12.785Q300.563,263.375,304.639,257Z" transform="translate(178.685 150.233)" fill="#a2a2a2"/>
    <path id="Trazado_144" data-name="Trazado 144" d="M78.6,199.206h-.5l-.5.017c.017-5.148-.481-10.331,2.025-15.273Q79.113,191.6,78.6,199.206Z" transform="translate(21.931 97.921)" fill="#eee"/>
    <path id="Trazado_145" data-name="Trazado 145" d="M293.943,283.48c-3.123,2.591-5.749,5.646-9.833,8.392C287.834,288.7,290.889,286.088,293.943,283.48Z" transform="translate(169.834 169.195)" fill="#5f5f5f"/>
    <path id="Trazado_146" data-name="Trazado 146" d="M83.37,202.074a2.791,2.791,0,0,1,.755.034c.6,4.1,1.647,8.169.583,12.39C84.383,210.346,82.735,206.347,83.37,202.074Z" transform="translate(25.979 110.893)" fill="#a9a9a9"/>
    <path id="Trazado_147" data-name="Trazado 147" d="M68.45,216.41q.8,4.685,1.579,9.387A9.834,9.834,0,0,1,68.45,216.41Z" transform="translate(14.986 121.166)" fill="#656565"/>
    <path id="Trazado_148" data-name="Trazado 148" d="M78.975,212.73a24.23,24.23,0,0,1,1.716,10.811A19.4,19.4,0,0,1,78.975,212.73Z" transform="translate(22.806 118.531)" fill="#707070"/>
    <path id="Trazado_149" data-name="Trazado 149" d="M291.566,222.846c.275.635.91,1.373.772,1.922-2.162,8.478,4.084,13.283,8.289,18.929,2.025,2.711,5.1,3.038,8.169,2.54,3.655-.6,7.259-1.459,10.88-2.248,6.779-1.459,11.961,3.81,10.4,10.588-4.908-6.144-7.705-6.041-11.841.463-3.69,5.818-4,11.721-.978,18.036,4.376,9.164,8.924,18.259,12.545,28.711-3.587-1.03-5.3-3.261-7.139-5.165-15.857-16.492-31.868-32.829-49.149-47.862a50.746,50.746,0,0,0-11.687-8.083c-3.4-1.579-7.087-3.055-10.348.034-3.312,3.14-2.608,7-1.047,10.777.326.807.789,1.579,1.184,2.351-2.162,4.7-4.256.5-6.384-.034-.343-.343-.7-.686-1.047-1.047a19.711,19.711,0,0,0-10.091-8.563c-6.229-2.454-12.356-5.045-19.083-5.9-3.415-.429-6.521-.481-9.542,1.665-2.214,1.562-10.4-.12-12.013-2.334-2.248-3.106-4.17-6.384-7.379-8.684-1.253-.91-1.218-2.454-.189-3.775,5.852-5.406,5.955-7.62.789-17.865,3.295-3.861,4.462-3.9,7.843-.189a5.176,5.176,0,0,1-.154-1.956c.309-2.54,11.652-17.35,13.952-18.328a2.84,2.84,0,0,1,2.952.412c3.535,4.582,7.911,4.736,12.734,2.4,5.646-2.729,10.194-6.916,14.535-11.326q14.132-14.338,29.62-27.166c2.78-2.317,5.423-4.942,10.039-6.487-1.442,4.05-3.913,6.212-6.178,8.426-13.231,12.957-26.806,25.553-40.912,37.566-5.234,4.462-10.52,8.907-14.432,14.656-2.694,3.947-4.565,8.134-.807,12.562,3.226,3.775,8.117,4.41,13.523,1.647,5.56-2.866,10.056-7.139,14.415-11.5,11.978-11.978,23.871-24.008,35.85-35.97a40.722,40.722,0,0,1,9.078-7.242c1.064-.583,2.317-1.424,3.346-.189,1.03,1.218-.069,2.368-.755,3.278-2.9,3.827-6.59,6.847-10.177,9.971-8.512,7.4-17.075,14.759-25.553,22.206a74.8,74.8,0,0,0-11.481,12.39c-4.736,6.556-5.406,11.464-2.145,14.844,3.226,3.329,8.306,2.952,15.05-1.27,6.161-3.878,11.395-8.872,16.56-13.952,9.8-9.645,18.946-19.958,29.895-28.384,1.956,1.853,1.047,3.69-.034,5.543-4.325,5.165-9.868,8.992-14.81,13.489-4.445,4.033-8.907,8.031-12.013,13.248-1.682,2.832-2.763,5.869-.36,8.855,2.471,3.072,5.663,2.334,8.7,1.184C287.19,225.163,289.352,223.927,291.566,222.846Z" transform="translate(98.95 69.785)" fill="#fefefe"/>
    <path id="Trazado_150" data-name="Trazado 150" d="M233.35,200.549a18.135,18.135,0,0,0-6.4,7.517c-.532,1.1-.927,2.523-1.836,3.14-5.337,3.621-8.186,8.083-4.616,15.5-5.011-1.939-6.006-8.718-11.721-6.092-18.071-20.919-38.7-39.625-54.555-62.535,3.038.154,4.736,2.2,6.538,3.93a407.558,407.558,0,0,1,30.77,33.413,50.3,50.3,0,0,0,11.515,10.812c3.878,2.454,8.014,4.239,12.1.515,3.775-3.467,2.145-7.448.412-11.189-2.9-6.3-7.242-11.652-11.755-16.852q-18.714-21.546-38.715-41.942A73.837,73.837,0,0,1,156.3,126.07a190.372,190.372,0,0,1,30.6,13.986c.6.807,1.253,1.15,2.094.309a19.486,19.486,0,0,0,13.815-3.209,19.4,19.4,0,0,1,2.3,1.184,22.1,22.1,0,0,1-.446-2.591c1.733-2.2,3.381-4.393,1.424-7.311.292-.446.618-1.03,1.1-1.081,10.623-1.27,21.057-1.888,29.174,7.259,3.14,3.535,6.418,7.036,10.52,9.576,1.287.807,2.4,2.214,1.922,3.5-1.7,4.462-2.591,9.456-6.847,12.493-2.059,1.459-4.05,1.442-6.281-.172-3.175-2.3-6.127-4.839-10.674-4.805-3.158.034-3.518-2.883-2.488-5.56.463-1.2.875-2.334-.189-3.415a1.093,1.093,0,0,0-1.459-.172c-1.3.978-1.321,2.385-1.15,3.827a22.545,22.545,0,0,0,.789,2.523c.566,2.334.532,4.582-1.544,6.264-1.888,1.527-3.844,1.356-5.886.206a7.343,7.343,0,0,0-5.1-.927c-2.214.429-4.016,1.51-4.616,3.81-.652,2.506.892,4.016,2.866,5.063,3.415,1.8,7.139,2.969,10.382,5.165,1.9,1.287,2.969.137,3.346-1.733.5-2.437.172-4.925.395-7.379.257-2.883.807-5.938,3.793-7a7.884,7.884,0,0,1,8.289,1.665c2.729,2.437,5.354,4.359,9.8,3.192,4.41-1.167,9.2,6.5,8.117,12.167-4.256,4.857-8.615,9.645-12.751,14.6C234.5,191.214,232.595,195.487,233.35,200.549Z" transform="translate(76.818 56.473)" fill="#c6c6c6"/>
    <path id="Trazado_151" data-name="Trazado 151" d="M186.438,139.622a3.7,3.7,0,0,1-2.626-1.956c.154-3.089,1.785-3.467,4.29-2.385,3.415,1.459,6.744,1.579,10.108-.515-1.1-2.214-2.883-1.27-4.256-1.424-2.4-.275-6.006.875-3.415-3.947.875-1.63-.824-1.956-2.179-1.785a7.527,7.527,0,0,1-5.492-1.442c-2.042-1.493-3.93-3.261-3.69-6.024.275-3.055,2.866-3.621,5.32-4.273,7.482-1.974,14.827-4.325,22.6-5.3a45.788,45.788,0,0,1,20.319,1.836,30.577,30.577,0,0,0,18.671.292c9.49-2.711,18.929-5.526,29.019-5.011,3.844.206,7.311.858,10.331,3.295-12.27,9.439-25.124,17.779-40.208,22.121-3.672,1.064-7.173,2.763-10.743,4.17-2.986.034-5.921.721-8.941.686-10.108-.1-12.064-2.248-10.949-12.27-4.05,3.6-7.894,7.465-10.211,12.545a3.461,3.461,0,0,1-3.261,2.3C196.185,140.395,191.226,141.493,186.438,139.622Z" transform="translate(94.677 43.263)" fill="#c6c6c6"/>
    <path id="Trazado_152" data-name="Trazado 152" d="M185.412,134.133a26.256,26.256,0,0,1,3.672-.034c6.727.841,12.047-.172,15-7.62,1.8-4.548,6.435-7.259,10.5-10.039,1.974-1.339,4.325-1.8,5.629.24,1.819,2.866-1.6,2.179-2.711,2.986-2.3,1.665-2.008,3.964-1.613,6.2.5,2.917,2.66,3.81,5.389,3.981,4.119.257,8.495-1.064,12.167,1.939-5.56,4.874-5.474,7.379.566,11.755a55.51,55.51,0,0,0,5.938,3.329c3.449.429,5.68,1.579,4.033,5.732-1.133,2.866.051,5.543,1.63,7.928a6.41,6.41,0,0,1,.755,6.435,136.7,136.7,0,0,1-14.9,13.643c-1.287-2.094-2.591-4.2-3.878-6.3-1.562-2.54-3.038-5.08-6.453-2.059-1.133,1.013-2.334.326-3.243-.669a28.035,28.035,0,0,0-2.059-2.4c-2.557-2.145-5.2-5.08-8.769-3.775-3.655,1.321-2.969,5.217-3,8.323a30.287,30.287,0,0,1-1.939,11.395c-.6,1.442-1.7,2.832-2.9.652-2.643-4.788-7.379-6.264-11.927-8.169-6.247-2.608-7.894-5.44-5.921-9.73,2.008-4.376,7.825-6.435,12.613-4.565,1.6.618,3.055,3.295,4.977.858,1.544-1.974-.412-3.484-1.218-5.183-1.939-4.187,1.836-7.4,2.3-11.223.086-.669,1.6-.789,2.385-.36,3.072,1.733,3.9,5.886,7.843,7.036.944.275-1.321,2.282-2.557,3.175-.944.686-2.711.892-2.3,2.454.343,1.339,1.939,1.442,3.158,1.442,3.123-.017,5.148,1.974,7.379,3.69,2.42,1.853,4.908,1.8,7.156-.412,2.385-2.351.412-4.1-.927-5.869.429-1.39,1.442-.7,2.2-.721,1.51-.017,2.917-.24,3.278-1.974.326-1.527-1-2.076-1.991-2.8-1.562-1.133-3.5-2.042-4.582-3.535C212.612,138.2,201.011,134.51,187.2,136.14,186.613,135.471,186.012,134.8,185.412,134.133Z" transform="translate(95.703 48.753)" fill="#fefefe"/>
    <path id="Trazado_153" data-name="Trazado 153" d="M221.6,158.359c-1.373-2.248-2.746-4.479-4.1-6.727-1.7-2.832-2.814-5.8-.721-8.855,1.647-2.42.154-3.432-1.6-4.5,7.963,1.218,14.707-2.643,21.76-5.251,6.024-2.231,11.893-4.925,18.6-5.749C245.057,138.675,232.925,148.079,221.6,158.359Z" transform="translate(120.472 57.339)" fill="#c6c6c6"/>
    <path id="Trazado_154" data-name="Trazado 154" d="M280.822,166.33c3.175,1.853,5.011,4.891,6.95,7.825,1.527,2.317,3.14,3.381,5.371.738,1.545-1.819,3.415-2.523,4.41.223,1.7,4.634,5.234,5.131,9.37,5.045,1.253-.034,3.072-1.064,3.724.772.481,1.356-.463,2.729-1.339,3.844a8.714,8.714,0,0,1-7.843,3.432c-5.268-.189-10.108-4.119-16.1-.395-2.162,1.339-7.928-1.733-9.61-5.045-2.231-4.393-4.977-4.736-8.889-3.724a47.728,47.728,0,0,1,9.559-8.649,3.136,3.136,0,0,0,3.226-3.072C280.067,166.982,280.444,166.656,280.822,166.33Z" transform="translate(157.488 85.303)" fill="#fdfdfd"/>
    <path id="Trazado_155" data-name="Trazado 155" d="M254.03,174.429c.017-1.853.017-3.69.034-5.543a8.566,8.566,0,0,1,1.339-1.579c1.51-1.1,3.415-2.969,4.977-1.218,1.836,2.042-.927,3.278-2.059,4.565A39.467,39.467,0,0,1,254.03,174.429Z" transform="translate(148.293 84.617)" fill="#c6c6c6"/>
    <path id="Trazado_156" data-name="Trazado 156" d="M275.676,166.9c.892,2.471,5.783,4.239,3.209,6.744-1.991,1.939-3.621-3.329-6.435-3.672C273.531,168.959,274.612,167.93,275.676,166.9Z" transform="translate(161.484 85.711)" fill="#cbcbcb"/>
    <path id="Trazado_157" data-name="Trazado 157" d="M177.091,119.595a1.575,1.575,0,0,1-1.922,1.871c-1.544-.154-3.295-.412-3.621-2.317-.172-1,.858-1.39,1.768-1.459C174.946,117.587,176.473,117.742,177.091,119.595Z" transform="translate(89.214 50.454)" fill="#c8c8c8"/>
    <path id="Trazado_158" data-name="Trazado 158" d="M320.763,91.413c-.137,3.278-4.222,7.1-7.379,6.933-2.574-.137-9.627-6.35-9.421-8.306.1-.91,8.169-8.563,9.044-8.581C315.065,81.426,320.865,88.874,320.763,91.413Z" transform="translate(184.047 24.527)" fill="#fcfcfc"/>
    <path id="Trazado_159" data-name="Trazado 159" d="M215.447,50.22c-2.008-1.6-7.843,2.128-7.019-3.535.5-3.432-3.415-10.262,4.633-10.451,6.864-.172,10.262,2.506,10.228,7.259C223.238,48.16,220.887,50.305,215.447,50.22Z" transform="translate(115.264 -7.866)" fill="#fafafa"/>
    <path id="Trazado_160" data-name="Trazado 160" d="M63.1,115.561c3.9-.086,8.066,3.192,7.534,6.435-.652,3.947-2.265,7.722-5.8,10-1.167.755-10.451-5.749-10.451-6.933C54.363,121.91,60.112,115.629,63.1,115.561Z" transform="translate(5.322 48.946)" fill="#fbfbfb"/>
    <path id="Trazado_161" data-name="Trazado 161" d="M361.817,150.488c.069,7.053-4.5,11.961-11.515,13.386-6.59,1.321-11.807-1.236-14.209-6.985-3.089-7.414-3.055-7.568,4.582-10.228,4.307-1.51,8.769-2.626,12.957-4.376,4.05-1.7,6.247-.789,7.07,3.552C361.045,147.691,361.577,149.527,361.817,150.488Z" transform="translate(205.682 67.509)" fill="#fdfdfd"/>
    <path id="Trazado_162" data-name="Trazado 162" d="M47.276,194.979c-11.687-.532-11.79-.583-11.532-7.242.257-6.573,3.432-9.919,9.215-9.662,5.663.24,8.529,3.432,8,9.387C52.613,191.324,53.9,197,47.276,194.979Z" transform="translate(-8.065 93.704)" fill="#fcfcfc"/>
    <path id="Trazado_163" data-name="Trazado 163" d="M338.687,112.62c-2.042,4.548-5.063,7.671-7.62,11.069-1.39,1.836-2.557,1.3-3.587-.36-.927-1.476-1.922-2.917-2.729-4.462-1-1.871-.772-3.415,1.63-3.9C330.278,114.182,334.191,113.478,338.687,112.62Z" transform="translate(198.54 46.841)" fill="#f8f8f8"/>
    <path id="Trazado_164" data-name="Trazado 164" d="M155.545,42.57c3.089,4.17,5.3,7.311,7.671,10.348,1.991,2.54.944,3.415-1.682,4.307-7.088,2.4-7.963,1.836-7.225-5.595C154.567,49.04,155.013,46.466,155.545,42.57Z" transform="translate(76.729 -3.323)" fill="#fafafa"/>
    <path id="Trazado_165" data-name="Trazado 165" d="M294.346,319.861a10.58,10.58,0,0,1,9.507,11.292c-.292,4.96-3.844,8.272-8.581,8.031-5.68-.275-10.194-5.663-9.782-11.635A7.94,7.94,0,0,1,294.346,319.861Z" transform="translate(170.804 195.23)" fill="#fdfdfd"/>
    <path id="Trazado_166" data-name="Trazado 166" d="M61.309,255.091C66.7,255,70.507,258.214,70.7,263c.206,5.44-4.771,10.194-10.657,10.177-5.165-.017-9.1-3.587-9.2-8.289C50.755,259.673,55.56,255.177,61.309,255.091Z" transform="translate(2.787 148.864)" fill="#fdfdfd"/>
    <path id="Trazado_167" data-name="Trazado 167" d="M177.676,351.44c-.257,5.543-4.685,10.194-9.49,10-4.839-.206-8.718-4.925-8.409-10.228.326-5.577,4.633-10.039,9.576-9.885C174.364,341.5,177.934,345.828,177.676,351.44Z" transform="translate(80.786 210.621)" fill="#fcfcfc"/>
    <path id="Trazado_168" data-name="Trazado 168" d="M107.315,316.52c2.986,1.939,6.487,3.226,6.418,7.208-.051,2.78-1.545,5.063-4.754,5.286-2.488.172-8.186-3.913-7.431-5.337C102.956,320.982,104.586,318.288,107.315,316.52Z" transform="translate(39.051 192.856)" fill="#fbfbfb"/>
    <path id="Trazado_169" data-name="Trazado 169" d="M348.777,254.222c-1.647,1.647.275,6.607-4.136,6.041-2.54-.326-7.311-.034-7.139-4.29.12-3.192,1.184-7.448,5.955-7.311C346.391,248.747,349.017,250.034,348.777,254.222Z" transform="translate(208.065 144.259)" fill="#f8f8f8"/>
    <path id="Trazado_170" data-name="Trazado 170" d="M324.948,305.149c-2.2-.137-9.627-6.47-9.507-7.585.326-3.038,5.406-7.4,8.272-7.088,3.6.378,6.967,3.947,6.384,7.139C329.478,301.031,327.2,303.382,324.948,305.149Z" transform="translate(192.269 174.194)" fill="#fbfbfb"/>
    <path id="Trazado_171" data-name="Trazado 171" d="M214.588,217.67c3.364,3.295,7.465,5.629,8.924,10.949.772,2.8,5.526,3.947,8.323,1.956,8.169-5.783,15.737-2.437,23.288.875,3.209,1.407,6.092,3.587,9.507,4.548a10.738,10.738,0,0,1,8.254,9.25c-3.844-2.454-7.088-5.749-11.258-7.774-3.793-1.853-7.448-2.471-10.657.841-3.4,3.518-4.2,7.551-1.785,12.064,3.57,6.641,8.958,11.67,14.484,16.578,5.251,4.668,10.983,8.769,15.634,14.089-.36,1.2-1.047,1.819-2.351,1.3-6.4-5.663-12.27-11.927-19.632-16.423a21.6,21.6,0,0,0-7.122-3.175c-5.646-1.081-8.821,2.454-9.2,10.159-11.1-3.415-18.071-21.657-11.91-31.182,2.832-4.376,1.682-7.225-3.518-8.031a8.473,8.473,0,0,1-5.268-3.02c-6.727-7.328-16.252-8.495-25.09-11.189-1.167-.36-1.819.858-2.643,1.459,1.2-6.092-1.579-11-4.925-15.617-7.98-11.017-17.624-20.542-27.217-30.118-4.857-4.839-9.919-9.507-13.883-15.153-.858-1.218-2.385-2.8-1.03-4.2,1.665-1.733,3.278.017,4.565,1.047,4.273,3.432,7.74,7.671,11.223,11.875q14.827,17.89,29.637,35.781a62.6,62.6,0,0,0,11.309,11.035C206.025,218.322,210.023,219.661,214.588,217.67Z" transform="translate(70.199 77.278)" fill="#c6c6c6"/>
    <path id="Trazado_172" data-name="Trazado 172" d="M153.469,226.265q-10.013,9.55-20.01,19.1c-7.345-9.765-11.893-10.949-26.051-6.847-9.01,2.626-9.027,2.609-11.429-6.4a64.817,64.817,0,0,1-1.613-6.659c-.378-2.385.154-4.754,2.488-5.955,8.529-4.393,15.067-12,24.626-14.844,3.518-1.047,5.732-2.162,6.95,2.694,1.115,4.428,5.1,5.2,8.186,1.7,1.716-1.939,2.42-1.3,3.552.189C144.528,214.99,150.071,219.8,153.469,226.265Z" transform="translate(33.877 112.1)" fill="#c6c6c6"/>
    <path id="Trazado_173" data-name="Trazado 173" d="M204.266,224.29c5.869,10.829,15.016,18.706,24.163,26.565-.326,1.819-1.647,2.145-3.192,2.111-2.952-1.493-5.474-3.758-8.786-4.565-5.045-1.218-8.958,2.368-7.482,7.328,1.03,3.449,3.072,6.607,4.668,9.9-1.75,4.616-3.467,9.233-5.268,13.832a5.372,5.372,0,0,0,.841,5.457c.635.875,1.218,1.922.463,2.9-.944,1.218-2.231.583-3.4.223-8.2-2.488-11.944-11.1-8.169-19,.841-1.768,2.025-3.552,1.716-5.474-1.39-8.632,3.569-16.217,3.93-24.66C203.957,234.055,204.884,229.2,204.266,224.29Z" transform="translate(107.189 126.809)" fill="#c6c6c6"/>
    <path id="Trazado_174" data-name="Trazado 174" d="M113.521,196.96c-2.643,1.647-2.2,5.577-4.857,7.088-2.214,1.253-3.312-1-4.41-2.609-1.407-2.076-2.282-.223-3.278.549-3.312,2.54-6.418,1.682-8.838-1.115-2.523-2.952-1.115-5.44,1.733-7.465,1.287-.91,2.3-2.2,3.57-3.106,2.866-2.042,5.732-4.41,7.1,1.562.652,2.832,3.518,3.055,6.024,3.312C111.7,195.278,113.109,194.969,113.521,196.96Z" transform="translate(31.421 100.871)" fill="#c7c7c7"/>
    <path id="Trazado_175" data-name="Trazado 175" d="M136.684,207.458c-10.108-1.047-19.444-4.033-26.994-12.648C121.068,195.617,132.171,195.05,136.684,207.458Z" transform="translate(44.93 105.698)" fill="#c7c7c7"/>
    <path id="Trazado_176" data-name="Trazado 176" d="M101.844,177.97c.292.1.583.137.6.24,1.253,5.268,6.933,7.946,7.877,13.334.275,1.562-.069,3.364-2.025,3.724-1.8.326-4.033-.223-4.359-2.042-.7-3.878-2.729-7.139-4.084-10.691C99.133,180.63,99.562,178.725,101.844,177.97Z" transform="translate(37.657 93.639)" fill="#c8c8c8"/>
    <path id="Trazado_177" data-name="Trazado 177" d="M116.926,159.45l5.063,5.526a14.372,14.372,0,0,0-9.524,2.248c-1.03.7-2.248,2.42-3.467.549-.875-1.339.326-2.626,1.167-3.758C111.863,161.681,115.69,162.488,116.926,159.45Z" transform="translate(44.216 80.376)" fill="#c7c7c7"/>
    <path id="Trazado_178" data-name="Trazado 178" d="M140,204.154c-.7.48-.841.652-.978.652-3.158.017-5.217-1.665-6.556-4.359-.086-.189.549-1.047.824-1.047C136.462,199.469,138.161,201.648,140,204.154Z" transform="translate(61.233 108.985)" fill="#cecece"/>
    <path id="Trazado_179" data-name="Trazado 179" d="M105.9,200.42c1.184,0,2.214.223,2.076,1.27-.223,1.6-1.7,1.991-3.072,2.248-.738.137-1.493-.12-1.476-.978C103.464,201.261,104.854,200.832,105.9,200.42Z" transform="translate(40.447 109.715)" fill="#c8c8c8"/>
    <path id="Trazado_180" data-name="Trazado 180" d="M232.309,216.3c12.51,10.777,24.42,22.121,34.082,35.712-13.78-8.546-24.4-20.645-36.107-31.525C229.34,218.308,229.237,216.54,232.309,216.3Z" transform="translate(130.87 121.087)" fill="#fcfcfc"/>
    <path id="Trazado_181" data-name="Trazado 181" d="M221.9,229.814c.789-.429,1.562-.875,2.351-1.3a209.751,209.751,0,0,1,27.235,24.969c1.2,1.321,3.329,3.261,1.527,4.96-1.75,1.647-3.587-.6-4.925-1.75C238.581,248.486,230.6,238.789,221.9,229.814Z" transform="translate(125.285 129.831)" fill="#fcfcfc"/>
    <path id="Trazado_182" data-name="Trazado 182" d="M213.31,241.881a4.941,4.941,0,0,1,3.192-2.111c8.22,7.173,16.475,14.329,23.923,22.327,2.368,2.54,7.362,5.663,5.028,8.512-1.7,2.077-5.595-2.78-8.014-5.08C229.27,257.755,221.324,249.775,213.31,241.881Z" transform="translate(119.133 137.894)" fill="#fcfcfc"/>
    <path id="Trazado_183" data-name="Trazado 183" d="M239.154,222.058a6.775,6.775,0,0,0-2.025,4.187q-8.495-8.984-16.989-17.985c2.128,0,4.256,1.476,6.384.034C230.059,213.494,234.641,217.75,239.154,222.058Z" transform="translate(124.024 115.33)" fill="#c5c5c5"/>
    <path id="Trazado_184" data-name="Trazado 184" d="M184.383,131.7c1.733,1.133,3.415,2.351,5.2,3.4,1.63.944,2.351,2.162,1.2,3.793-1.253,1.768-2.746,1.064-3.981-.1-1.75-1.647-3.81-3.089-4.273-5.7Z" transform="translate(97.091 60.504)" fill="#fcfcfc"/>
    <path id="Trazado_185" data-name="Trazado 185" d="M176.24,134.509c.789,1.2,4.325.463,2.66,3.312-1.339,2.265-3.758,1.9-5.594.789-3.175-1.939.5-2.935.858-4.41C174.85,134.32,175.536,134.406,176.24,134.509Z" transform="translate(89.567 62.295)" fill="#e9e9e9"/>
    <path id="Trazado_186" data-name="Trazado 186" d="M299.214,172c-2.969-.069-5.646-1.3-8.495-.549-1.424.378-3.089,1.459-4.17-.515-.755-1.373-.189-2.729.532-3.964.91-1.562,1.939-3.14,4.067-2.471,3.655,1.15,7.276,2.454,10.863,3.793,1.013.378,1.871,1.27,1.236,2.454C302.32,172.493,300.536,171.875,299.214,172Z" transform="translate(171.324 83.877)" fill="#fdfdfd"/>
    <path id="Trazado_187" data-name="Trazado 187" d="M192.946,186.73a15.852,15.852,0,0,1,3,.7c2.454,1.064,7.225,1.733,6.332,4.136-1.321,3.552-4.239-.5-6.538-.892a19.087,19.087,0,0,0-3.106-.326c-1.39-.017-3.175.412-3.055-1.75C189.685,186.7,191.47,186.884,192.946,186.73Z" transform="translate(102.138 99.912)" fill="#cdcdcd"/>
    <path id="Trazado_188" data-name="Trazado 188" d="M203.346,191.424c.034,1.1-.686,1.579-1.562,1.819a1.735,1.735,0,0,1-2.317-1.476,1.438,1.438,0,0,1,1.424-1.785A2.083,2.083,0,0,1,203.346,191.424Z" transform="translate(109.19 102.22)" fill="#c9c9c9"/>
</svg>
